. 
  
http://www.torrenting.com/        :     Greatest Movie Tracker on The Net!!!
 
http://www.Torrenting.com          :     Once & For all ;)


               www . Torrenting . Com 

(((((((((((((= Enjoy No RAR releases =))))))))))))))))))))


...................................NFO:....................................

.[img]http://img855.imageshack.us/img855/9774/pault.jpg[/img]

[color=blue][size=5][b]Paul.2011.Extended.BDRip.XVID.AC3.HQ.Hive-CM8[/b][/size][/color]


[b]Thx Hive


CM8 Doing It Right The First Time :D


Source Bluray

Video: 720x304 @bitrate 1800 2pass
Audio: English DTS to AC3 5.1 @448
Sample: yes included
Subs: yes english in srt /subs[/b]


[url]http://www.imdb.com/title/tt1092026/[/url]


General
Complete name                    : Paul.2011.Extended.BDRip.XVID.AC3.HQ.Hive-CM8.avi
Format                           : AVI
Format/Info                      : Audio Video Interleave
File size                        : 1.72 GiB
Duration                         : 1h 49mn
Overall bit rate                 : 2 257 Kbps
Writing application              : Nandub v1.0rc2
Writing library                  : Nandub build 1853/release

Video
ID                               : 0
Format                           : MPEG-4 Visual
Format profile                   : Advanced Simple@L5
Format settings, BVOP            : 1
Format settings, QPel            : Yes
Format settings, GMC             : No warppoints
Format settings, Matrix          : Default (H.263)
Muxing mode                      : Packed bitstream
Codec ID                         : XVID
Codec ID/Hint                    : XviD
Duration                         : 1h 49mn
Bit rate                         : 1 800 Kbps
Width                            : 720 pixels
Height                           : 304 pixels
Display aspect ratio             : 2.35:1
Frame rate                       : 23.976 fps
Color space                      : YUV
Chroma subsampling               : 4:2:0
Bit depth                        : 8 bits
Scan type                        : Progressive
Compression mode                 : Lossy
Bits/(Pixel*Frame)               : 0.343
Stream size                      : 1.37 GiB (80%)
Writing library                  : XviD 1.2.1 (UTC 2008-12-04)

Audio
ID                               : 1
Format                           : AC-3
Format/Info                      : Audio Coding 3
Mode extension                   : CM (complete main)
Codec ID                         : 2000
Duration                         : 1h 49mn
Bit rate mode                    : Constant
Bit rate                         : 448 Kbps
Channel(s)                       : 6 channels
Channel positions                : Front: L C R, Side: L R, LFE
Sampling rate                    : 48.0 KHz
Bit depth                        : 16 bits
Compression mode                 : Lossy
Stream size                      : 350 MiB (20%)
Alignment                        : Split accross interleaves
Interleave, duration             : 42 ms (1.00 video frame)
Interleave, preload duration     : 500 ms


Simon Pegg	 ... 	Graeme Willy
Nick Frost	... 	Clive Gollings
Jeremy Owen	... 	Sword Vendor
Jeffrey Tambor	... 	Adam Shadowchild
David House	... 	Security Guard


Two British comic-book geeks traveling across the U.S. encounter an alien outside Area 51. 


[img]http://img42.imageshack.us/img42/3172/papapapapapapa.png[/img]
[img]http://img832.imageshack.us/img832/5803/papapapapapapapa.png[/img]
[img]http://img835.imageshack.us/img835/8586/papapapapapapapapapapa.png[/img]
[img]http://img689.imageshack.us/img689/3662/papapapapapapapapa.png[/img]
[img]http://img7.imageshack.us/img7/8484/papapapapapapapapapa.png[/img]
[img]http://img580.imageshack.us/img580/329/22302346.png[/img]
[img]http://img40.imageshack.us/img40/4849/papaeo.png[/img]
[img]http://img146.imageshack.us/img146/7563/papapaz.png[/img]
[img]http://img703.imageshack.us/img703/9061/papapapapa.png[/img]

cover+label:

[img]http://img696.imageshack.us/img696/5568/paul2011frontcover53631.jpg[/img]

[img]http://img560.imageshack.us/img560/1760/paul2011cdcover53631.jpg[/img]





Greetz

ViSiON,SANTi,MAGNET,THC,T0XiC,iNK,LKRG,IMAGiNE,WBZ,FLAWL3SS,NOVA
Vik,OneTwo,Rapeseed,D2U,SAFC,goldadvance,MEMORY100,KaN1vE,Unevano,Pinnz,Wayne,Mr Hive
and all P2P groups 
Great Work Guys :D

FYS

CM8@hushmail.com